<?xml version="1.0" encoding="utf-8"?>
<!-- Generator: Adobe Illustrator 19.2.1, SVG Export Plug-In . SVG Version: 6.00 Build 0)  -->
<svg version="1.0" id="Layer_1" xmlns="http://www.w3.org/2000/svg" xmlns:xlink="http://www.w3.org/1999/xlink" x="0px" y="0px"
	 viewBox="0 0 240 240" style="enable-background:new 0 0 240 240;" xml:space="preserve">
<style type="text/css">
	.st0{fill:#6F5499;}
	.st1{fill:#324249;}
	.st2{fill:#F2F0DA;}
	.st3{fill:#483866;}
	.st4{opacity:0.2;}
</style>
<rect id="Call_to_Action_2_" class="st0" width="240" height="240"/>
<g>
	<path class="st1" d="M176,64h-4l0,0c0-4.4-3.6-8-8-8H76c-4.4,0-8,3.6-8,8h-4c-4.4,0-8,3.6-8,8v96c0,4.4,3.6,8,8,8h4
		c0,4.4,3.6,8,8,8h88c4.4,0,8-3.6,8-8l0,0h4c4.4,0,8-3.6,8-8V72C184,67.6,180.4,64,176,64z M68,172h-4c-2.2,0-4-1.8-4-4V72
		c0-2.2,1.8-4,4-4h4V172z M168,92v84c0,2.2-1.8,4-4,4H76c-2.2,0-4-1.8-4-4V64c0-2.2,1.8-4,4-4h88c2.2,0,4,1.8,4,4V92z M180,168
		c0,2.2-1.8,4-4,4h-4V68h4c2.2,0,4,1.8,4,4V168z"/>
	<g>
		<path class="st2" d="M164,60H76c-2.2,0-4,1.8-4,4v112c0,2.2,1.8,4,4,4h88c2.2,0,4-1.8,4-4V92V64C168,61.8,166.2,60,164,60z"/>
	</g>
	<g>
		<path class="st3" d="M60,72v96c0,2.2,1.8,4,4,4h4V68h-4C61.8,68,60,69.8,60,72z"/>
		<path class="st3" d="M176,68h-4v104h4c2.2,0,4-1.8,4-4V72C180,69.8,178.2,68,176,68z"/>
	</g>
	<g class="st4">
		<path d="M90,84h24c1.1,0,2-0.9,2-2s-0.9-2-2-2H90c-1.1,0-2,0.9-2,2S88.9,84,90,84z"/>
		<path d="M90,136h32c1.1,0,2-0.9,2-2s-0.9-2-2-2H90c-1.1,0-2,0.9-2,2S88.9,136,90,136z"/>
		<path d="M130,136h20c1.1,0,2-0.9,2-2s-0.9-2-2-2h-20c-1.1,0-2,0.9-2,2S128.9,136,130,136z"/>
		<path d="M90,100h32c1.1,0,2-0.9,2-2s-0.9-2-2-2H90c-1.1,0-2,0.9-2,2S88.9,100,90,100z"/>
		<path d="M130,100h20c1.1,0,2-0.9,2-2s-0.9-2-2-2h-20c-1.1,0-2,0.9-2,2S128.9,100,130,100z"/>
		<path d="M150,156h-36c-1.1,0-2,0.9-2,2s0.9,2,2,2h36c1.1,0,2-0.9,2-2S151.1,156,150,156z"/>
		<path d="M106,156H90c-1.1,0-2,0.9-2,2s0.9,2,2,2h16c1.1,0,2-0.9,2-2S107.1,156,106,156z"/>
		<path d="M90,148h8c1.1,0,2-0.9,2-2s-0.9-2-2-2h-8c-1.1,0-2,0.9-2,2S88.9,148,90,148z"/>
		<path d="M106,144c-1.1,0-2,0.9-2,2s0.9,2,2,2h12c1.1,0,2-0.9,2-2s-0.9-2-2-2H106z"/>
		<path d="M150,144h-24c-1.1,0-2,0.9-2,2s0.9,2,2,2h24c1.1,0,2-0.9,2-2S151.1,144,150,144z"/>
		<path d="M150,120h-36c-1.1,0-2,0.9-2,2s0.9,2,2,2h36c1.1,0,2-0.9,2-2S151.1,120,150,120z"/>
		<path d="M106,120H90c-1.1,0-2,0.9-2,2s0.9,2,2,2h16c1.1,0,2-0.9,2-2S107.1,120,106,120z"/>
		<path d="M90,112h8c1.1,0,2-0.9,2-2s-0.9-2-2-2h-8c-1.1,0-2,0.9-2,2S88.9,112,90,112z"/>
		<path d="M106,108c-1.1,0-2,0.9-2,2s0.9,2,2,2h12c1.1,0,2-0.9,2-2s-0.9-2-2-2H106z"/>
		<path d="M150,108h-24c-1.1,0-2,0.9-2,2s0.9,2,2,2h24c1.1,0,2-0.9,2-2S151.1,108,150,108z"/>
	</g>
</g>
</svg>
